<?xml version="1.0" standalone="no"?>
<!DOCTYPE svg PUBLIC "-//W3C//DTD SVG 20010904//EN"
 "http://www.w3.org/TR/2001/REC-SVG-20010904/DTD/svg10.dtd">
<svg version="1.0" xmlns="http://www.w3.org/2000/svg"
 width="512.000000pt" height="512.000000pt" viewBox="0 0 512.000000 512.000000"
 preserveAspectRatio="xMidYMid meet">
<metadata>
Created by potrace 1.14, written by Peter Selinger 2001-2017
</metadata>
<g transform="translate(0.000000,512.000000) scale(0.100000,-0.100000)"
fill="#000000" stroke="none">
<path d="M885 5106 c-164 -40 -305 -182 -343 -346 -12 -50 -13 -4002 -1 -4060
24 -120 105 -239 204 -302 22 -14 69 -36 105 -49 63 -23 73 -24 380 -24 198 0
318 -4 322 -10 4 -5 7 -67 7 -136 -1 -145 3 -167 37 -175 31 -8 35 -5 234 165
91 78 172 141 180 141 17 0 40 -17 154 -116 39 -33 82 -69 95 -80 13 -10 42
-36 65 -56 60 -54 81 -63 110 -50 29 13 32 28 30 185 -1 86 3 127 10 128 6 1
475 2 1041 3 807 1 1035 4 1053 14 21 12 22 18 22 162 0 122 -3 151 -16 164
-17 18 -14 17 -109 21 -38 1 -74 3 -80 4 -6 0 -10 117 -10 326 0 209 4 325 10
326 6 1 42 3 80 4 94 3 91 3 109 21 14 14 16 190 16 1792 0 1271 -3 1788 -11
1817 -15 52 -82 119 -134 134 -60 16 -3491 14 -3560 -3z"/>
</g>
</svg>
