<?xml version="1.0" encoding="utf-8"?>
<!-- Generator: Adobe Illustrator 25.0.1, SVG Export Plug-In . SVG Version: 6.00 Build 0)  -->
<svg version="1.1" id="Camada_1" xmlns="http://www.w3.org/2000/svg" xmlns:xlink="http://www.w3.org/1999/xlink" x="0px" y="0px"
	 viewBox="0 0 288.8 167" style="fill: rgba(0,0,0,.1);" xml:space="preserve">
<style type="text/css">
	.st0{display:none;}
	.st1{display:inline;}
</style>
<g class="st0">
	<g class="st1">
		<g>
			<path d="M55.4,78.6c-12.6-2.3-24.7,5.7-27,18.1c-1.3,7.1,0.9,14.4,5.8,19.7l-2,10.6c-0.2,0.8,0.2,1.7,0.9,2.1
				c0.7,0.5,1.6,0.5,2.3,0l10-6.2c0.5,0.1,1.1,0.3,1.6,0.4c12.6,2.3,24.7-5.7,27-18.1S68,80.9,55.4,78.6z M47.8,119.1
				c-0.7-0.1-1.4-0.3-2.1-0.5c-0.6-0.2-1.2-0.1-1.7,0.2l-6.7,4.2l1.3-7c0.1-0.7-0.1-1.4-0.6-1.9c-4.5-4.4-6.6-10.6-5.4-16.7
				c1.9-10,11.8-16.7,22-14.7c10.3,1.9,17.1,11.7,15.2,21.7C68,114.4,58.1,121,47.8,119.1z"/>
		</g>
	</g>
	<g class="st1">
		<g>
			<path d="M54.5,89l-7.3-1.4c-1.1-0.2-2.2,0.5-2.5,1.7s0.5,2.2,1.7,2.5l7.3,1.4c1.7,0.3,2.8,2,2.5,3.7s-2,2.8-3.7,2.5l-2-0.4
				c-1.1-0.2-2.2,0.5-2.5,1.7l-0.6,3c-0.2,1.1,0.5,2.2,1.7,2.5c1.1,0.2,2.2-0.5,2.5-1.7l0.2-0.9c4,0.7,7.9-1.9,8.6-5.9
				C61.2,93.6,58.5,89.7,54.5,89z"/>
		</g>
	</g>
	<g class="st1">
		<g>
			<circle cx="48.2" cy="111.4" r="2.8"/>
		</g>
	</g>
</g>
<g class="st0">
	<g class="st1">
		<g>
			<path d="M180.1,11.6c-6.8,4.2-9.1,13-4.9,19.8c2.4,3.9,6.5,6.3,11,6.7l3.6,5.8c0.3,0.4,0.8,0.7,1.3,0.6c0.5-0.1,0.9-0.4,1.1-0.9
				l2-7.1c0.3-0.2,0.6-0.3,0.9-0.5c6.8-4.2,9.1-13,4.9-19.8S186.9,7.4,180.1,11.6z M193.7,33.7c-0.4,0.2-0.8,0.4-1.2,0.6
				c-0.3,0.2-0.6,0.5-0.7,0.8l-1.3,4.8l-2.3-3.8c-0.2-0.4-0.6-0.6-1.1-0.6c-4-0.1-7.5-2.2-9.6-5.5c-3.4-5.5-1.5-12.7,4-16.1
				s12.9-1.8,16.2,3.7C201.1,23,199.2,30.2,193.7,33.7z"/>
		</g>
	</g>
	<g class="st1">
		<g>
			<path d="M184.1,16.8l-3.9,2.4c-0.6,0.4-0.8,1.2-0.4,1.8c0.4,0.6,1.2,0.8,1.8,0.4l3.9-2.4c0.9-0.6,2.2-0.3,2.7,0.7
				s0.3,2.2-0.7,2.7l-1.1,0.7c-0.6,0.4-0.8,1.2-0.4,1.8l1,1.6c0.4,0.6,1.2,0.8,1.8,0.4s0.8-1.2,0.4-1.8l-0.3-0.5
				c2.2-1.3,2.9-4.2,1.5-6.4C189.1,16.2,186.3,15.5,184.1,16.8z"/>
		</g>
	</g>
	<g class="st1">
		<g>
			<circle cx="190.6" cy="29.9" r="1.8"/>
		</g>
	</g>
</g>
<g class="st0">
	<path class="st1" d="M141.3,63.3c0.1,1.7-1.1,2.7-1.9,3.5c-0.3,0.3-0.9,0.8-0.9,1c0,0.8-0.5,1.4-1.3,1.4l0,0
		c-0.7,0-1.4-0.5-1.4-1.3c-0.1-1.5,0.9-2.4,1.8-3.2c0.6-0.6,1.1-1,1-1.4c0-0.7-0.7-1.3-1.4-1.3s-1.3,0.7-1.3,1.4
		c0,0.8-0.5,1.4-1.3,1.4s-1.4-0.5-1.4-1.3c-0.1-2.2,1.6-4.2,3.8-4.3C139.3,59.3,141.2,61.1,141.3,63.3z M137.4,70.6
		c-0.8,0-1.3,0.7-1.3,1.4l0,0c0,0.8,0.7,1.3,1.4,1.3c0.8,0,1.3-0.7,1.3-1.4C138.8,71.1,138.1,70.5,137.4,70.6z M110.5,81.6
		c-0.8,0-1.3,0.7-1.3,1.4c0,0.8,0.7,1.3,1.4,1.3h0.1c0.8,0,1.3-0.7,1.3-1.4C112,82.1,111.3,81.6,110.5,81.6L110.5,81.6z M115.2,81.3
		c-0.8,0-1.3,0.7-1.3,1.4c0,0.8,0.7,1.3,1.4,1.3h0.1c0.8,0,1.3-0.7,1.3-1.4C116.7,81.8,116,81.3,115.2,81.3L115.2,81.3z M153.9,57.3
		l0.9,15.3c0.2,3.6-2.5,6.7-6.2,6.9l-17.7,1c-0.3,0-0.6,0-0.9,0c-0.2,0-0.5,0-0.6,0c-0.1,0.1-0.4,0.4-0.6,0.6
		c-0.1,0.1-0.2,0.2-0.3,0.3l-4.7,4.8c-0.4,0.4-1,0.5-1.5,0.3s-0.9-0.7-0.9-1.2l-0.8-14.4L106.3,72c-2.1,0.1-3.8,2-3.7,4.1l0.9,15.3
		c0.1,2.1,2,3.7,4.1,3.6l19.7-1.1c0.3,0,0.7,0.1,0.9,0.3l4.3,3.5l-0.7-12.9c0-0.8,0.5-1.4,1.3-1.4s1.4,0.5,1.4,1.3l0.9,16
		c0,0.5-0.3,1-0.7,1.3c-0.2,0.1-0.3,0.1-0.5,0.1c-0.3,0-0.7-0.1-0.9-0.3l-6.3-5.1l-19.2,1.1c-3.6,0.2-6.8-2.5-7-6.1l-0.9-15.3
		c-0.2-3.6,2.6-6.8,6.2-7l14.3-0.8l-0.5-9.2c-0.2-3.6,2.6-6.7,6.3-6.9l20.9-1.2C150.7,50.9,153.7,53.7,153.9,57.3z M151.2,57.5
		c-0.1-2.1-1.9-3.7-4-3.6l-20.9,1.2c-2.1,0.1-3.8,1.9-3.7,4l0.6,10.6l0.7,12.7l2.6-2.6c0.1-0.1,0.3-0.2,0.4-0.3
		c1.2-1.2,1.5-1.4,3.1-1.5c0.2,0,0.5,0,0.8,0l17.7-1c2.1-0.1,3.7-1.9,3.6-4.1L151.2,57.5L151.2,57.5z"/>
</g>
<g class="st0">
	<path class="st1" d="M124.3,126.6c6,3,10.5,8.7,7.2,15.3c-3,6.1-11.2,4.9-13.8,6.4c-1.9,1.1-2.7,3.5-5.8,2c-2-1-2.2-3.1-1.4-4.6
		c2.8-5.6,11.6-2.7,13.9-7.3c1.3-2.5,0.3-4.9-2.5-6.3c-6-3-6.7,4.3-11.2,2.1c-1.6-0.8-2.5-2.5-1.6-4.4
		C111.4,125.2,118.6,123.8,124.3,126.6z M110.6,153.4c2.1,1.1,3,3.6,1.9,5.7s-3.6,3-5.7,1.9s-3-3.6-1.9-5.7
		C105.9,153.2,108.5,152.3,110.6,153.4z"/>
</g>
<g class="st0">
	<g id="help" class="st1">
		<path d="M59.4,12.5c-8.8,6.1-11,18.4-4.8,27.2s18.4,11,27.2,4.8s11-18.4,4.8-27.2S68.2,6.3,59.4,12.5z M80,38.5l-3.2,2.2l-2.2-3.2
			l3.2-2.2L80,38.5z M74.8,23.9l-0.4,2.4c-0.5,2-0.5,3.4,1.2,5.8l-3.2,2.2l-0.6-0.8c-1.2-1.8-1.7-3.8-1.2-5.8l0.5-3.4
			c0.3-0.9,0.1-1.9-0.6-2.9c-1.2-1.8-3.7-2.2-5.4-1c-1.8,1.2-2.2,3.7-1,5.4L60.9,28c-2.5-3.5-1.6-8.4,1.9-10.9
			c3.5-2.5,8.4-1.6,10.9,1.9C74.6,20.6,74.9,22.3,74.8,23.9z"/>
	</g>
</g>
<g>
	<g>
		<g>
			<path d="M280.7,121.6h-18.6c0.1-0.3,0.1-0.7,0.1-1v-11.4c0-3.1-2.5-5.6-5.6-5.6h-21.3c-3.1,0-5.6,2.5-5.6,5.6v11.4
				c0,3.1,2.5,5.6,5.6,5.6h3.3l-0.2,4.1c0,0.4,0.2,0.7,0.5,0.9c0.2,0.1,0.3,0.1,0.5,0.1s0.4-0.1,0.5-0.2l7.7-5h1
				c-0.2,0.6-0.3,1.3-0.3,2v13.8c0,3.6,2.9,6.6,6.6,6.6h2.8l6.2,6.4c0.2,0.2,0.4,0.3,0.7,0.3c0.1,0,0.2,0,0.3-0.1
				c0.4-0.1,0.6-0.5,0.7-0.8l0.6-5.8h14.5c3.6,0,6.6-2.9,6.6-6.6v-13.8C287.2,124.5,284.3,121.6,280.7,121.6z M249.7,124.1h-2.3
				c-0.2,0-0.4,0.1-0.5,0.2l-6.4,4.1l0.1-3.2c0-0.3-0.1-0.5-0.3-0.7s-0.4-0.3-0.7-0.3h-4.3c-2,0-3.6-1.6-3.6-3.6v-11.4
				c0-2,1.6-3.6,3.6-3.6h21.3c2,0,3.6,1.6,3.6,3.6v11.4c0,0.4-0.1,0.7-0.2,1h-5.2C252.7,121.6,250.9,122.6,249.7,124.1z
				 M285.2,141.9c0,2.5-2,4.6-4.6,4.6h-15.4c-0.5,0-0.9,0.4-1,0.9l-0.5,4.5l-5-5.1c-0.2-0.2-0.4-0.3-0.7-0.3h-3.2
				c-2.5,0-4.6-2-4.6-4.6v-13.8c0-2.5,2-4.6,4.6-4.6h25.8l0,0c2.5,0,4.6,2,4.6,4.6V141.9L285.2,141.9z"/>
		</g>
	</g>
	<g>
		<g>
			<path d="M250.3,111.1c-0.1-2.2-1.9-3.9-4.1-4.1c-1.2-0.1-2.4,0.3-3.3,1.2c-0.9,0.8-1.4,2-1.4,3.2c0,0.6,0.4,1,1,1s1-0.4,1-1
				c0-0.7,0.3-1.3,0.7-1.7c0.5-0.4,1.1-0.7,1.8-0.6c1.2,0.1,2.1,1,2.2,2.2c0.1,0.9-0.4,1.7-1.1,2.2c-1.4,0.9-2.2,2.3-2.2,3.9
				c0,0.6,0.4,1,1,1s1-0.4,1-1c0-0.9,0.5-1.8,1.3-2.2C249.6,114.2,250.4,112.7,250.3,111.1z"/>
		</g>
	</g>
	<g>
		<g>
			<path d="M267.8,127.6c-0.6,0-1,0.4-1,1v8.4c0,0.6,0.4,1,1,1s1-0.4,1-1v-8.4C268.8,128,268.3,127.6,267.8,127.6z"/>
		</g>
	</g>
	<g>
		<g>
			<circle cx="267.8" cy="141.5" r="1"/>
		</g>
	</g>
	<g>
		<g>
			<circle cx="245.9" cy="121" r="1"/>
		</g>
	</g>
</g>
<g>
	<path d="M243,30c-10.5,4.2-15.9,15.5-12,25.2c1.1,2.6,2.7,4.9,4.7,6.7l-1.2,10c-0.1,0.6,0.2,1.1,0.7,1.4c0.4,0.2,0.8,0.2,1.2,0.1
		c0.1,0,0.2-0.1,0.3-0.2l8.8-6.7c3.7,0.6,7.8,0.2,11.6-1.3c10.5-4.2,15.9-15.5,12-25.2C265.2,30.2,253.5,25.8,243,30z M253.7,56.6
		c-1,0.4-2.2-0.1-2.6-1.1c-0.4-1,0.1-2.2,1.1-2.6c1-0.4,2.2,0.1,2.6,1.1C255.2,55,254.7,56.2,253.7,56.6z M252,46.9
		c-0.2,0.3-0.3,0.5-0.4,0.6l0.8,2c0.3,0.8-0.1,1.7-0.9,2.1c-0.8,0.3-1.7-0.1-2.1-0.9l-0.9-2.1c-0.6-1.4,0.2-2.5,0.7-3.4
		c0.6-0.9,1-1.5,0.5-2.6c-0.4-0.9-1.4-1.4-2.3-1c-0.9,0.4-1.4,1.4-1,2.3c0.3,0.8-0.1,1.7-0.9,2.1c-0.8,0.3-1.7-0.1-2.1-0.9
		c-1-2.5,0.2-5.4,2.8-6.5c2.5-1,5.4,0.2,6.5,2.8C254,44,252.8,45.8,252,46.9z"/>
</g>
<g>
	<g>
		<path d="M152.9,81.8c-0.1,1.6-0.8,2.8-2.1,3.7c-0.9,0.6-1.7,1.2-2.6,1.8c-1.2,0.8-2.4,1.6-3.6,2.4c-0.8,0.6-1.6,1.2-2.4,1.7
			c-0.8,0.5-1.5,1.1-2.3,1.6c-1.2,0.8-2.3,1.6-3.5,2.4c-1.2,0.8-2.5,1.7-3.7,2.5c-1.2,0.8-2.3,1.7-3.5,2.5c-0.8,0.6-1.6,1.1-2.4,1.6
			c-0.8,0.6-1.6,1.1-2.4,1.7c-0.9,0.6-1.8,1.2-2.6,1.8c-0.7,0.5-1.5,1-2.2,1.5c-1,0.6-2,0.6-3.1,0.4c-1.2-0.3-2.1-1-2.8-2
			c-0.5-0.7-0.6-1.6-0.7-2.5c-0.4-2.2-0.7-4.3-1.1-6.5c-0.3-1.7-0.5-3.4-0.8-5c-0.3-2-0.7-3.9-1-5.9c-0.3-1.9-0.6-3.8-0.9-5.8
			c-0.2-1.5-0.5-2.9-0.7-4.4c-0.2-1.4-0.5-2.9-0.7-4.4c-0.3-1.7-0.5-3.4-0.8-5.1c-0.3-1.7-0.6-3.4-0.9-5.2c-0.2-1-0.3-2-0.5-3
			c-0.2-1.1,0.1-2.1,0.8-3c0.5-0.6,1.1-1.1,1.7-1.4c0.8-0.3,1.7-0.4,2.6-0.1c3.4,1,6.9,1.9,10.3,2.9c3.5,0.9,6.9,1.9,10.4,2.8
			c2.8,0.8,5.7,1.6,8.5,2.4c2.4,0.7,4.8,1.3,7.3,2c1.2,0.4,2.4,0.9,3,2.2c0.3,0.8,0.4,1.6,0.6,2.5c0.4,2.2,0.7,4.3,1.1,6.5
			c0.4,2.3,0.8,4.6,1.1,6.9C153,81.5,153,81.6,152.9,81.8z M148.9,70.5c-0.2,0.1-0.3,0.1-0.4,0.2c-1.1,0.7-2.1,1.5-3.2,2.2
			c-1.1,0.8-2.3,1.6-3.4,2.4c-1.2,0.8-2.4,1.7-3.6,2.5c-0.8,0.6-1.7,1.2-2.5,1.8c-0.8,0.6-1.6,1.1-2.4,1.7c-0.8,0.6-1.7,1.1-2.5,1.7
			c-0.8,0.6-1.7,1.2-2.5,1.8c-0.9,0.6-1.8,1.2-2.7,1.8c-1.4,1-2.9,2-4.3,3c-1.2,0.8-2.4,1.6-3.5,2.4c-1.2,0.9-2.5,1.2-4,0.8
			c-0.3-0.1-0.5,0-0.4,0.3c0.1,0.9,0.3,1.7,0.4,2.6c0,0.2,0.2,0.5,0.4,0.5c1.4,0.6,2.7,0.3,3.9-0.5c0.9-0.6,1.7-1.2,2.6-1.8
			c0.8-0.5,1.6-1.1,2.4-1.6c0.9-0.6,1.7-1.2,2.5-1.8c1.1-0.8,2.3-1.5,3.5-2.3c0.9-0.6,1.7-1.3,2.6-1.9c1.5-1,2.9-2,4.4-3
			c1.5-1,3-2.1,4.5-3.2c1.5-1.1,3-2.1,4.5-3.1c1.3-0.9,2.6-1.8,3.8-2.7c0.2-0.1,0.4-0.4,0.4-0.6C149.3,72.7,149.1,71.6,148.9,70.5z
			 M150.3,79.4c-0.3,0.2-0.5,0.4-0.8,0.6c-0.8,0.6-1.6,1.1-2.5,1.7c-1.6,1.1-3.2,2.3-4.9,3.4c-0.7,0.5-1.5,1-2.2,1.5
			c-1.2,0.8-2.4,1.7-3.6,2.5c-1.1,0.8-2.3,1.5-3.4,2.3c-1.3,0.9-2.5,1.8-3.8,2.7c-1.1,0.7-2.1,1.5-3.2,2.2c-1.3,0.9-2.5,1.7-3.8,2.6
			c-0.8,0.6-1.6,1.2-2.5,1.8c-0.9,0.7-1.9,1.3-3.1,1.3c-0.6,0-1.2-0.1-1.8-0.2c0,0.2,0,0.5,0.1,0.7c0.2,0.7,0.3,1.4,0.6,2
			c0.5,1,2.3,1.3,3.2,0.5c1-0.8,2.2-1.6,3.3-2.3c1.6-1.1,3.1-2.2,4.7-3.3c0.8-0.5,1.5-1.1,2.3-1.6c0.9-0.6,1.7-1.2,2.6-1.8
			c0.8-0.6,1.6-1.2,2.5-1.8c0.8-0.6,1.7-1.1,2.5-1.7c0.9-0.6,1.8-1.3,2.7-1.9c0.8-0.6,1.6-1.1,2.5-1.7c1.1-0.8,2.2-1.6,3.3-2.3
			c1.5-1.1,3.1-2.1,4.5-3.1c0.6-0.5,1.2-1.1,1.1-1.9C150.6,80.9,150.5,80.2,150.3,79.4z"/>
	</g>
</g>
<g>
	<g>
		<path d="M22.5,117.2c0.1,0,0.3,0,0.4-0.1c1-1.2,2-2.4,3-3.6c0.7-0.8,1.2-1.7,2-2.4c0.7-0.7,0.8-1.3,0.5-2.3
			c-0.8-2.7-0.9-5.4-0.6-8.2c0.5-4,2-7.7,4.5-10.8c2.8-3.5,6.5-5.9,10.8-7.2c3.7-1.1,7.5-1.1,11.3-0.2c0.5,0.1,0.7,0.3,0.5,0.9
			c-1.7,5.7-3.4,11.5-5.1,17.3c-0.3,0.9-0.5,1.7-0.8,2.6c6.9,2,13.6,4,20.5,6.1c-0.5,2.1-1.4,3.9-2.6,5.7c-1.5,2.3-3.4,4.4-5.8,5.9
			c-2.7,1.8-5.6,3-8.8,3.5c-3.8,0.6-7.5,0.2-11.1-1.2c-2.7-1-5.2-2.5-7.2-4.6c-0.2-0.2-0.4-0.3-0.6-0.5c-0.9-1.8-2.4-1.5-3.9-1.3
			c-2.4,0.4-4.8,0.6-7.2,0.9C22.5,117.6,22.5,117.4,22.5,117.2z M45.3,89.5c-1.1-1.2-4.2-2-6.7-0.5c-2.4,1.5-3.5,4.2-2.7,6.8
			c0.9,3,3.5,4.5,6.1,4.3c3.1-0.2,5.2-2.4,5.5-5.7c-1.6,1.9-3.3,2.3-5.2,0.8c-1-0.8-1.3-2.6-0.8-3.7C42.3,90.1,43.5,89.4,45.3,89.5z
			"/>
		<path d="M70.6,106.4c1.4-4.9,0.9-9.6-1.5-14c-2.4-4.4-6.1-7.4-11-8.9c0.3-1,0.6-1.9,0.9-3c1.2,0.5,2.4,0.9,3.5,1.4
			c5.6,2.8,9.2,7.3,11,13.2c1.2,3.8,1.1,7.6,0.2,11.4c-0.1,0.2-0.5,0.6-0.7,0.5C72.2,106.9,71.4,106.6,70.6,106.4z"/>
		<path d="M67.6,105.5c-1-0.3-1.9-0.6-2.8-0.8c1.4-7.5-1.4-12.5-8.3-15.4c0.2-0.7,0.4-1.4,0.5-2.2c0.1-0.5,0.4-0.6,0.9-0.5
			c4.1,1.5,7.1,4.2,8.9,8.1c1.5,3.2,1.8,6.4,1,9.8C67.8,104.9,67.7,105.2,67.6,105.5z"/>
		<path d="M54.7,95.1c0.3-0.9,0.5-1.8,0.8-2.6c4.6,0.9,7.9,6.9,6.1,11.3c-0.8-0.2-1.6-0.4-2.3-0.7c-0.2-0.1-0.4-0.5-0.4-0.7
			c0.5-2.5-0.3-4.5-2.3-6.1C56.1,95.9,55.4,95.5,54.7,95.1z"/>
		<path d="M55.7,102c-0.9-0.3-1.8-0.5-2.8-0.8c0.3-1,0.5-1.9,0.8-2.9C55.5,98.9,56.5,100.7,55.7,102z"/>
	</g>
</g>
<g>
	<g>
		<path d="M119.6,161.1c-5.6-4.9-12.1-7.5-19.5-8.2c2.7-0.3,5.4-0.4,8.2,0.2c-0.3-0.6-0.5-1.1-0.7-1.6c-0.4-1.1-0.9-2.2-1.2-3.4
			c-0.3-1.3-0.6-2.6-0.7-3.9c-0.1-1.2,0-2.4,0.1-3.7c0.1-1.6,0.4-3.1,0.9-4.5c0.4-1.1,0.9-2.2,1.4-3.3c0.4-0.8,0.9-1.5,1.6-2.2
			c2-2,5.5-2.2,7.6,0.2c1.5,1.7,2,3.7,1.8,5.9c-0.1,1.7-0.6,3.3-1.3,4.9c-0.7,1.6-1.5,3.3-2.3,4.9c-1,1.8-2.2,3.5-3.5,5.2
			c-0.5,0.6-1,1.2-1.4,1.8c-0.1,0.1-0.1,0.2-0.2,0.3c0,0,0.1,0.1,0.1,0.1c0.1-0.1,0.3-0.2,0.4-0.4c0.9-1,1.8-2.1,2.8-3.1
			c1-1,2.1-2.1,3.3-3c1.7-1.3,3.7-2.2,5.8-2.7c1.5-0.3,3-0.3,4.5,0c1.9,0.4,3.4,1.9,3.5,3.7c0.1,1.6-0.6,2.8-1.7,3.8
			c-1.1,1-2.4,1.7-3.8,2c-1,0.2-2,0.5-3,0.5c-1.7,0.1-3.4,0.1-5.1,0c-1.5,0-3-0.2-4.5-0.3c-0.1,0-0.2,0-0.4,0c1.5,0.9,2.9,1.8,4.1,3
			C117.5,158.5,118.7,159.7,119.6,161.1z"/>
	</g>
</g>
<g>
	<g>
		<path d="M54,14.7c1.2-1.4,2.5-2.5,4-3.6c1.5-1,3-1.8,4.7-2.4c2.1-0.7,4.2-1.1,6.4-1.2c0.2,0,0.4,0,0.6,0c0.8,0.1,1.4-0.4,2-0.6
			c1.8-0.7,3.6-1.3,5.4-2c0.5-0.2,1.1-0.4,1.6-0.6c0.5-0.2,0.9-0.2,1.4,0C81.4,5,82.7,5.6,84,6.2c0.3,0.1,0.6,0.3,0.9,0.4
			c1.3,0.5,1.5,1.2,1.3,2.3c-0.3,1.7-0.7,3.4-1,5c-0.1,0.5-0.1,0.8,0.3,1.2c2.1,2.5,3.5,5.4,4.2,8.6c0.5,2.3,0.6,4.6,0.3,7
			c-0.3,2.7-1.2,5.2-2.6,7.6c-0.8,1.3-1.6,2.5-2.7,3.6c-1.7,1.9-3.7,3.4-5.9,4.5c-0.2,0.1-0.4,0.2-0.5,0.4c-0.3,0.7-0.9,1.1-1.6,1.3
			c-2.4,0.9-4.8,1.8-7.2,2.7c-0.5,0.2-1,0.4-1.6,0.6c-0.7,0.2-1.3,0.1-1.9-0.2c-1.4-0.6-2.7-1.3-4.1-1.8c-1-0.4-1.7-1-2.2-2.1
			c-0.3-0.6-0.6-1.1-0.9-1.7c-0.1-0.1-0.2-0.2-0.3-0.3c-2.9-1.8-5.2-4.3-6.9-7.3c-1.3-2.4-2.2-5-2.5-7.8c-0.1-0.8-0.1-1.7-0.1-2.5
			c0-0.2-0.1-0.5-0.3-0.7c-0.9-1.6-1.7-3.2-2.6-4.7c-0.5-1-1.1-2-1.6-2.9c-0.5-0.8-0.2-2,0.8-2.5c0.8-0.4,1.7-0.7,2.5-1
			c1.4-0.6,2.8-1.1,4.2-1.7c0.6-0.2,1.1-0.1,1.6,0.1C53.8,14.6,53.9,14.7,54,14.7z M65,37.9c-0.3-0.5-0.5-1-0.8-1.4
			c-1.3-2.5-2.5-5-3.8-7.4c-1.1-2.2-2.2-4.3-3.3-6.5c-1.2-2.3-2.3-4.5-3.5-6.8c-0.3-0.6-0.8-0.8-1.4-0.6c-0.1,0-0.3,0.1-0.4,0.2
			c-2,0.8-4,1.6-6,2.4c-0.7,0.3-0.9,0.9-0.6,1.6c1.3,2.4,2.6,4.8,3.9,7.2c1.3,2.4,2.6,4.8,3.9,7.2c1.5,2.8,3.1,5.6,4.6,8.4
			c1,1.9,2,3.7,3,5.6c0.4,0.8,1.2,1.2,2.2,0.8c1.7-0.7,3.5-1.3,5.3-2c1.1-0.4,2.2-0.8,3.2-1.2c0.7-0.2,1.1-0.6,1.3-1.3
			c0.3-1.3,0.5-2.6,0.8-3.8c0.2-1.1,0.4-2.1,0.6-3.2c0.3-1.6,0.7-3.2,1-4.8c0.4-2,0.8-4.1,1.2-6.1c0.3-1.3,0.6-2.6,0.8-3.9
			c0.4-1.8,0.7-3.6,1.1-5.4c0.3-1.6,0.7-3.3,1-4.9c0.4-1.8,0.7-3.6,1.1-5.3c0.1-0.4,0.1-0.9-0.2-1.2C79.8,5,79.4,5,78.9,5.2
			c-2.5,1-4.9,1.9-7.4,2.8c-0.4,0.2-0.7,0.4-0.8,0.9c-0.1,0.5-0.2,1-0.3,1.5c-0.2,1.2-0.5,2.5-0.7,3.7c-0.2,1.2-0.4,2.5-0.7,3.7
			c-0.4,2-0.8,3.9-1.2,5.9c-0.4,2-0.7,4-1.1,5.9c-0.4,2-0.8,4-1.2,5.9C65.4,36.3,65.2,37,65,37.9z M55.8,15.5
			c0.7,0.3,1.3,0.6,1.9,0.9c0.7,0.3,1.3,0.6,1.6,1.2c0.7,1.4,1.4,2.7,2.1,4.1c1,2,2.1,4.1,3.1,6.2c0.4,0.7,0.7,1.4,1.1,2.2
			c1.3-6.9,2.7-13.7,4-20.6C64.2,9.6,59.6,11.5,55.8,15.5z M84.5,17c-1.9,9.1-3.8,18.2-5.6,27.4C87.8,39.4,91.7,26.9,84.5,17z
			 M56.5,41.4c-1.7-3.1-3.4-6.3-5.1-9.4C52.1,35.7,53.7,38.9,56.5,41.4z"/>
	</g>
</g>
<g>
	<path d="M187.2,32l-4.3,0.9c-0.3,0.7-0.9,1-1.8,1.2c-1.2,0.2-1.9-0.3-2.2-1.4l-2.4-9c0-0.1,0-0.1,0-0.2c-0.1-0.6,0.1-1.1,0.7-1.5
		c0.3-0.3,0.8-0.4,1.2-0.5c0.8-0.1,1.3,0,1.8,0.3l15.8-3.4c0.1,0,0.2-0.1,0.3-0.1c0.6-0.1,1.1-0.1,1.6,0.1c0.9,0.3,1.4,1,1.5,2.1
		c0,0.2,0,0.4,0,0.6l0.2,7.6c0,1.2-0.6,1.8-1.8,2c-1,0.1-1.7-0.1-2.1-0.7l-4.3,0.9l0.3,2.3l12-2.3l0.4-0.1c0.5,0,1,0.1,1.3,0.4
		c0.3,0.3,0.5,0.6,0.5,1c0.2,1.1-0.2,1.8-1.2,2l-12.5,2.4l0.7,4.5c0.1,0.5-0.1,1-0.4,1.4c-0.4,0.4-0.9,0.7-1.5,0.8
		c-0.9,0.1-1.6-0.1-2.1-0.7c-0.2-0.2-0.3-0.5-0.4-0.8l-0.6-4.3l-12.2,2.4l-0.1,0c-0.3,0.1-0.7,0-1-0.2c-0.4-0.2-0.6-0.7-0.7-1.2
		c-0.1-0.6,0-1.2,0.4-1.5c0.2-0.2,0.5-0.4,0.8-0.5l12.3-2.4L187.2,32z M193.6,15.9l0,1.5c0,1-0.6,1.6-1.8,1.8
		c-0.8,0.1-1.4-0.1-1.7-0.5c-0.2-0.3-0.4-0.6-0.4-0.9l0-0.2l-0.1-0.8l-4.9,1.1l0.2,0.9c0,0.1,0,0.2,0.1,0.2c0.1,0.5-0.1,1-0.5,1.3
		c-0.3,0.3-0.7,0.5-1.3,0.6c-1.1,0.2-1.8-0.2-2.2-1.2l-0.3-0.9l-5.7,1.2c-0.1,0-0.2,0-0.2,0c-0.4,0.1-0.8,0-1.1-0.3
		c-0.3-0.2-0.5-0.6-0.5-1c-0.1-0.6,0.1-1.2,0.5-1.5c0.2-0.2,0.4-0.3,0.7-0.3l5.3-1.1l-0.4-1.2c0-0.1-0.1-0.2-0.1-0.3
		c-0.1-0.7,0.2-1.3,0.9-1.8c0.3-0.2,0.7-0.3,1.1-0.4c0.7-0.1,1.3,0.1,1.8,0.5c0.2,0.2,0.4,0.5,0.5,0.9l0.4,1.3l5.5-1.2l-0.1-1.6
		c-0.1-1.1,0.5-1.8,1.9-2l0.1,0c0.6-0.1,1.2,0,1.7,0.4c0.4,0.3,0.7,0.7,0.8,1.3c0,0.1,0,0.2,0,0.3l0,0.7l5-1.1
		c0.4-0.1,0.7,0,1.1,0.1c0.5,0.2,0.7,0.6,0.8,1.2c0.1,1-0.2,1.6-1.2,1.8L193.6,15.9z M195.3,23.2l0-0.7c0-0.1,0-0.2,0-0.3
		c-0.1-0.5-0.3-0.7-0.6-0.6l-0.1,0l-13.2,2.9l0.4,1.5L195.3,23.2z M195.4,25.8l-13.2,2.8l0.4,1.7l12.9-2.7L195.4,25.8z"/>
</g>
</svg>
